<svg version="1.1" xmlns="http://www.w3.org/2000/svg" width="900" height="274" viewBox="0 0 900 274"><rect fill="#ff6b00" x="14" width="47" height="102"/><path fill="#ff6b00" d="M14,149v77c0,35,27,48,47,48h23v-48H61v-77H14z"/><rect fill="#05ce7c" y="102" width="14" height="47"/><rect fill="#05ce7c" x="61" y="102" width="23" height="47"/><rect fill="#055600" x="14" y="102" width="47" height="47"/><path fill="#da1800" d="M234,196l48-20c-6.5-15.4-13-30-19-38l-47,20C226.1,168.5,230.9,181.2,234,196z"/><path fill="#da1800" d="M174,220c-12.7-8.5-18.5-19.9-17-38l-49,20c3.7,15.3,10,29.2,18,39L174,220z"/><path fill="#ff6b00" d="M216,158l47-20c-51-72-167-30-155,64l49-20C161.6,151.3,194,139.4,216,158z"/><path fill="#da3ab3" d="M157,182c-1.5,18.1,4.3,29.5,17,38l60-24c-3.1-14.8-7.9-27.5-18-38L157,182z"/><path fill="#ff6b00" d="M126,241c35.4,43.7,98,43,138,6l-30-37c-15,17-46,20-60,10"/><path fill="#da3ab3" d="M353,104v-2h-47v60C308.2,132.5,328.3,110.9,353,104z"/><path fill="#00b3e3" d="M353,104v58c4.7-13.4,18.4-17.1,28-8l34-34C396.2,102.2,373.1,98.4,353,104z"/><path fill="#00299f" d="M353,104c-24.7,6.9-44.8,28.5-47,58v112h47V104z"/><path fill="#ff4338" d="M555,102h-75c-67.2,12.1-60.7,107.6,7,109h29c10.2,0,10.2,16,0,16h-68v47h68c36.4-3.6,53.6-26.7,54-53c0.4-28.7-20.3-57-55-57h-30c-6.6-2.3-6.6-12.4,0-15h70V102z"/><path fill="#da1800" d="M719,196l48-20c-6.5-15.4-13-30-19-38l-47,20C711.1,168.5,715.9,181.2,719,196z"/><path fill="#da1800" d="M659,220c-12.7-8.5-18.5-19.9-17-38l-49,20c3.7,15.3,10,29.2,18,39L659,220z"/><path fill="#ff6b00" d="M701,158l47-20c-51-72-167-30-155,64l49-20C646.6,151.3,679,139.4,701,158z"/><path fill="#da3ab3" d="M642,182c-1.5,18.1,4.3,29.5,17,38l60-24c-3.1-14.8-7.9-27.5-18-38L642,182z"/><path fill="#ff6b00" d="M611,241c35.4,43.7,98,43,138,6l-30-37c-15,17-46,20-60,10"/><path fill="#da3ab3" d="M838,104v-2h-47v60C793.2,132.5,813.3,110.9,838,104z"/><path fill="#00b3e3" d="M838,104v58c4.7-13.4,18.4-17.1,28-8l34-34C881.2,102.2,858.1,98.4,838,104z"/><path fill="#00299f" d="M838,104c-24.7,6.9-44.8,28.5-47,58v112h47V104z"/></svg>